<?xml version="1.0" encoding="UTF-8" standalone="no"?>
<svg
   xmlns:dc="http://purl.org/dc/elements/1.1/"
   xmlns:cc="http://creativecommons.org/ns#"
   xmlns:rdf="http://www.w3.org/1999/02/22-rdf-syntax-ns#"
   xmlns:svg="http://www.w3.org/2000/svg"
   xmlns="http://www.w3.org/2000/svg"
   xmlns:sodipodi="http://sodipodi.sourceforge.net/DTD/sodipodi-0.dtd"
   xmlns:inkscape="http://www.inkscape.org/namespaces/inkscape"
   width="120mm"
   height="120mm"
   viewBox="-60 -60 120 120"
   sodipodi:docname="Kheper.svg"
   version="1.1"
   id="svg168"
   inkscape:version="1.0.2 (e86c870879, 2021-01-15, custom)">
  <defs
     id="defs170" />
  <sodipodi:namedview
     pagecolor="#ffffff"
     bordercolor="#666666"
     borderopacity="1.0"
     inkscape:pageopacity="0.0"
     inkscape:pageshadow="2"
     inkscape:zoom="1"
     inkscape:cx="22.271654"
     inkscape:cy="226.77165"
     inkscape:document-units="mm"
     inkscape:current-layer="Template"
     showgrid="false"
     units="mm"
     showguides="true"
     inkscape:guide-bbox="true"
     inkscape:snap-global="true"
     inkscape:snap-bbox="true"
     inkscape:snap-bbox-midpoints="true"
     inkscape:window-width="850"
     inkscape:window-height="832"
     inkscape:window-x="682"
     inkscape:window-y="222"
     inkscape:window-maximized="0"
     inkscape:bbox-paths="true"
     inkscape:bbox-nodes="true"
     inkscape:snap-bbox-edge-midpoints="true"
     inkscape:snap-grids="true"
     id="namedview158"
     inkscape:document-rotation="0">
    <sodipodi:guide
       orientation="1,0"
       position="226.771653543,226.771653543"
       id="guide2827" />
    <sodipodi:guide
       orientation="0,1"
       position="226.771653543,226.771653543"
       id="guide2829" />
    <inkscape:grid
       type="xygrid"
       id="grid3072"
       empspacing="10"
       visible="true"
       enabled="true"
       snapvisiblegridlinesonly="true"
       units="mm"
       dotted="false"
       spacingx="0.1mm"
       spacingy="0.1mm" />
  </sodipodi:namedview>
  <metadata
     id="metadata2822">
    <rdf:RDF>
      <cc:Work
         rdf:about="">
        <dc:format>image/svg+xml</dc:format>
        <dc:type
           rdf:resource="http://purl.org/dc/dcmitype/StillImage" />
        <dc:title></dc:title>
      </cc:Work>
    </rdf:RDF>
  </metadata>
  <g
     inkscape:label="Layer 1"
     inkscape:groupmode="layer"
     id="Template"
     style="fill:none;stroke:black;stroke-width:0.05">
    <circle
       cx="0"
       cy="0"
       r="60"
       id="circle161"
       style="fill:#ff0000"
       inkscape:export-xdpi="38.084133"
       inkscape:export-ydpi="38.084133" />
    <circle
       cx="0"
       cy="0"
       r="19"
       id="circle163" />
    <circle
       cx="0"
       cy="0"
       r="7.5"
       id="circle165" />
    <g
       id="g2253"
       transform="matrix(0.24074806,0,0,0.24074806,-117.60069,-83.114703)"
       style="fill:#000000">
      <path
         sodipodi:nodetypes="ccccsccccccsccccszsc"
         id="path2221"
         d="m 401.53564,309.90006 c -17.28625,-43.7609 0.16788,-70.48966 37.37564,-78.7919 -2.64252,-7.58435 -1.64106,-39.64366 23.52937,-21.78481 -23.72712,-26.99667 -26.32861,-42.62372 1.25622,-1.8941 -1.41524,-5.83169 -2.79205,-9.82526 -5.59535,-16.50837 -9.03925,-21.54975 -1.6413,-15.78628 6.27279,-1.938 3.72363,-0.16746 7.443,-0.30507 11.15613,-0.39898 -2.81948,-19.74482 2.44073,-20.03332 5.55255,-0.10618 2.40386,-0.0304 4.80468,-0.0395 7.20191,-0.0234 1.43453,-20.06215 4.76011,-20.40535 6.56705,0.10972 4.38657,0.11936 8.75941,0.33485 13.11518,0.66986 7.61635,-18.24766 12.26198,-17.4125 5.54845,3.85805 -0.26868,0.85128 -4.06805,10.77528 -3.13601,10.8684 23.0287,-32.78293 28.52837,-27.94904 -0.75761,4.9245 15.86302,-17.28397 22.73931,0.80786 22.22336,15.65736 25.27486,-1.21126 66.51439,24.09811 44.44671,82.32743 5.83344,31.29912 14.03238,88.6936 10.10152,134.35029 -5.41126,62.85145 -40.76975,77.40192 -95.45941,75.76144 -54.69781,-1.64072 -96.66705,-24.1374 -100.0051,-70.2056 -3.57182,-49.29449 0.62295,-112.72178 10.6066,-136.87567 z"
         style="fill:#000000;fill-rule:evenodd;stroke:#000000;stroke-width:1px;stroke-linecap:butt;stroke-linejoin:miter;stroke-opacity:1" />
      <path
         sodipodi:nodetypes="cccccssccc"
         id="path2241"
         d="m 385.35714,288.43361 c -1.67318,-17.70979 -13.62096,-42.26619 -28.21428,-55.35714 3.52604,-5.97881 12.60402,-18.04204 -2.14286,-23.57143 11.1665,-12.34876 18.22549,-25.18075 5.35714,-40.35714 14.90928,-4.16751 17.22462,-15.1583 12.67858,-30.71429 39.59964,-4.37317 49.86959,-31.49057 50.17857,-40.357143 0.12795,-3.671663 7.35264,-0.672352 6.78571,3.214283 -6.44585,44.18969 -29.73123,13.69534 -51.78571,83.21429 -2.11354,8.48683 -7.39798,55.76599 13.57142,93.21428 -0.48747,7.29605 -2.14475,11.96003 -6.42857,10.71429 z"
         style="fill:#000000;fill-rule:evenodd;stroke:#000000;stroke-width:1px;stroke-linecap:butt;stroke-linejoin:miter;stroke-opacity:1" />
      <path
         style="fill:#000000;fill-rule:evenodd;stroke:#000000;stroke-width:1px;stroke-linecap:butt;stroke-linejoin:miter;stroke-opacity:1"
         d="m 591.60354,288.43361 c 1.67318,-17.70979 13.62096,-42.26619 28.21428,-55.35714 -3.52604,-5.97881 -12.60402,-18.04204 2.14286,-23.57143 -11.1665,-12.34876 -18.22549,-25.18075 -5.35714,-40.35714 -14.90928,-4.16751 -17.22462,-15.1583 -12.67858,-30.71429 -39.59964,-4.37317 -49.86959,-31.49057 -50.17857,-40.357143 -0.12795,-3.671663 -7.35264,-0.672352 -6.78571,3.214283 6.44585,44.18969 29.73123,13.69534 51.78571,83.21429 2.11354,8.48683 7.39798,55.76599 -13.57142,93.21428 0.48747,7.29605 2.14475,11.96003 6.42857,10.71429 z"
         id="path2243"
         sodipodi:nodetypes="cccccssccc" />
      <path
         sodipodi:nodetypes="cscc"
         id="path2245"
         d="m 390,314.1479 c -22.48546,29.30054 -42.56989,78.95159 -27.14286,83.21428 20.46822,5.65564 23.26777,-54.10746 33.21429,-76.42857 3.52352,-7.14249 -0.25127,-11.94781 -6.07143,-6.78571 z"
         style="fill:#000000;fill-rule:evenodd;stroke:#000000;stroke-width:1px;stroke-linecap:butt;stroke-linejoin:miter;stroke-opacity:1" />
      <path
         sodipodi:nodetypes="cssccscc"
         id="path2247"
         d="m 385.35715,441.64789 c -18.7235,28.07687 -41.05515,86.73346 -9.28572,145.7143 5.84369,10.84897 15.13233,7.88227 11.42857,-4.28572 -6.60847,-21.71086 -16.71522,-48.67662 -15.45417,-76.09084 12.671,62.57395 18.13277,47.34832 16.69297,44.70309 -10.71977,-20.92215 -10.85457,-70.31238 -5.47609,-85.7705 1.12855,-3.24354 3.55375,-5.98659 5.66586,-8.91318 1.30851,-0.23793 6.35372,-17.76531 -3.57142,-15.35715 z"
         style="fill:#000000;fill-rule:evenodd;stroke:#000000;stroke-width:1px;stroke-linecap:butt;stroke-linejoin:miter;stroke-opacity:1" />
      <path
         style="fill:#000000;fill-rule:evenodd;stroke:#000000;stroke-width:1px;stroke-linecap:butt;stroke-linejoin:miter;stroke-opacity:1"
         d="m 587.71609,314.1479 c 22.48546,29.30054 42.56989,78.95159 27.14286,83.21428 -20.46822,5.65564 -23.26777,-54.10746 -33.21429,-76.42857 -3.52352,-7.14249 0.25127,-11.94781 6.07143,-6.78571 z"
         id="path2249"
         sodipodi:nodetypes="cscc" />
      <path
         style="fill:#000000;fill-rule:evenodd;stroke:#000000;stroke-width:1px;stroke-linecap:butt;stroke-linejoin:miter;stroke-opacity:1"
         d="m 592.5449,441.64789 c 18.7235,28.07687 41.05515,86.73346 9.28572,145.7143 -5.84369,10.84897 -15.13233,7.88227 -11.42857,-4.28572 6.60847,-21.71086 16.71522,-48.67662 15.45417,-76.09084 -12.671,62.57395 -18.13277,47.34832 -16.69297,44.70309 10.71977,-20.92215 10.85457,-70.31238 5.47609,-85.7705 -1.12855,-3.24354 -3.55375,-5.98659 -5.66586,-8.91318 -1.30851,-0.23793 -6.35372,-17.76531 3.57142,-15.35715 z"
         id="path2251"
         sodipodi:nodetypes="cssccscc" />
    </g>
  </g>
</svg>
